<svg width="254" height="14" viewBox="0 0 254 14" fill="none" xmlns="http://www.w3.org/2000/svg">
<path d="M7.0293 6.91895C7.0293 7.61621 6.83105 8.14941 6.43457 8.51855C6.04264 8.88314 5.48665 9.06543 4.7666 9.06543C4.05111 9.06543 3.47689 8.82617 3.04395 8.34766C2.61556 7.86458 2.40137 7.20833 2.40137 6.37891V5.62695C2.40137 4.82487 2.61784 4.18457 3.05078 3.70605C3.48828 3.22298 4.06022 2.98145 4.7666 2.98145C5.49577 2.98145 6.05632 3.16829 6.44824 3.54199C6.84017 3.91569 7.03613 4.44206 7.03613 5.12109H6.03809C6.03809 4.66992 5.92871 4.34863 5.70996 4.15723C5.49577 3.96126 5.18132 3.86328 4.7666 3.86328C4.33822 3.86328 4.00098 4.02051 3.75488 4.33496C3.50879 4.64941 3.38574 5.08691 3.38574 5.64746V6.41992C3.38574 6.9668 3.50879 7.39746 3.75488 7.71191C4.00098 8.02637 4.33822 8.18359 4.7666 8.18359C5.18587 8.18359 5.50033 8.08789 5.70996 7.89648C5.92415 7.70508 6.03125 7.37923 6.03125 6.91895H7.0293ZM0.788086 6.0166C0.788086 6.80046 0.970378 7.52734 1.33496 8.19727C1.69954 8.86263 2.19401 9.38444 2.81836 9.7627C3.44727 10.141 4.1263 10.3301 4.85547 10.3301C5.58464 10.3301 6.26139 10.141 6.88574 9.7627C7.51009 9.38444 8.00456 8.86263 8.36914 8.19727C8.73372 7.52734 8.91602 6.80046 8.91602 6.0166C8.91602 5.24186 8.736 4.52409 8.37598 3.86328C8.01595 3.20247 7.52148 2.68294 6.89258 2.30469C6.26823 1.92188 5.58919 1.73047 4.85547 1.73047C4.1263 1.73047 3.44727 1.9196 2.81836 2.29785C2.18945 2.67155 1.69271 3.19108 1.32812 3.85645C0.968099 4.52181 0.788086 5.24186 0.788086 6.0166ZM0.00195312 6.0166C0.00195312 5.09603 0.213867 4.24154 0.637695 3.45312C1.06608 2.66471 1.65625 2.04492 2.4082 1.59375C3.16471 1.13802 3.98047 0.910156 4.85547 0.910156C5.73047 0.910156 6.54395 1.13802 7.2959 1.59375C8.04785 2.04492 8.63574 2.66471 9.05957 3.45312C9.48796 4.24154 9.70215 5.09603 9.70215 6.0166C9.70215 6.91439 9.49707 7.75521 9.08691 8.53906C8.67676 9.32292 8.09342 9.9541 7.33691 10.4326C6.58496 10.9066 5.75781 11.1436 4.85547 11.1436C3.95768 11.1436 3.13053 10.9089 2.37402 10.4395C1.62207 9.96549 1.03874 9.33659 0.624023 8.55273C0.20931 7.76888 0.00195312 6.9235 0.00195312 6.0166ZM21.207 11H14.6855V10.0908L18.1309 6.2627C18.6413 5.68392 18.9922 5.21452 19.1836 4.85449C19.3796 4.48991 19.4775 4.11393 19.4775 3.72656C19.4775 3.20703 19.3203 2.78092 19.0059 2.44824C18.6914 2.11556 18.2721 1.94922 17.748 1.94922C17.1191 1.94922 16.6292 2.12923 16.2783 2.48926C15.932 2.84473 15.7588 3.34147 15.7588 3.97949H14.4941C14.4941 3.06348 14.7881 2.32292 15.376 1.75781C15.9684 1.19271 16.7591 0.910156 17.748 0.910156C18.6732 0.910156 19.4046 1.15397 19.9424 1.6416C20.4801 2.12467 20.749 2.76953 20.749 3.57617C20.749 4.55599 20.1247 5.72266 18.876 7.07617L16.21 9.96777H21.207V11ZM28.7881 6.75488C28.7881 8.236 28.5352 9.33659 28.0293 10.0566C27.5234 10.7767 26.7327 11.1367 25.6572 11.1367C24.5954 11.1367 23.8092 10.7858 23.2988 10.084C22.7884 9.3776 22.5241 8.32487 22.5059 6.92578V5.2373C22.5059 3.77441 22.7588 2.6875 23.2646 1.97656C23.7705 1.26562 24.5635 0.910156 25.6436 0.910156C26.7145 0.910156 27.5029 1.25423 28.0088 1.94238C28.5146 2.62598 28.7744 3.68327 28.7881 5.11426V6.75488ZM27.5234 5.02539C27.5234 3.95443 27.373 3.17513 27.0723 2.6875C26.7715 2.19531 26.2952 1.94922 25.6436 1.94922C24.9964 1.94922 24.5247 2.19303 24.2285 2.68066C23.9323 3.16829 23.7796 3.91797 23.7705 4.92969V6.95312C23.7705 8.02865 23.9255 8.82389 24.2354 9.33887C24.5498 9.84928 25.0238 10.1045 25.6572 10.1045C26.2816 10.1045 26.7441 9.86296 27.0449 9.37988C27.3503 8.89681 27.5098 8.13574 27.5234 7.09668V5.02539ZM36.9297 11H30.4082V10.0908L33.8535 6.2627C34.3639 5.68392 34.7148 5.21452 34.9062 4.85449C35.1022 4.48991 35.2002 4.11393 35.2002 3.72656C35.2002 3.20703 35.043 2.78092 34.7285 2.44824C34.4141 2.11556 33.9948 1.94922 33.4707 1.94922C32.8418 1.94922 32.3519 2.12923 32.001 2.48926C31.6546 2.84473 31.4814 3.34147 31.4814 3.97949H30.2168C30.2168 3.06348 30.5107 2.32292 31.0986 1.75781C31.6911 1.19271 32.4818 0.910156 33.4707 0.910156C34.3958 0.910156 35.1273 1.15397 35.665 1.6416C36.2028 2.12467 36.4717 2.76953 36.4717 3.57617C36.4717 4.55599 35.8473 5.72266 34.5986 7.07617L31.9326 9.96777H36.9297V11ZM44.5107 6.75488C44.5107 8.236 44.2578 9.33659 43.752 10.0566C43.2461 10.7767 42.4554 11.1367 41.3799 11.1367C40.318 11.1367 39.5319 10.7858 39.0215 10.084C38.5111 9.3776 38.2467 8.32487 38.2285 6.92578V5.2373C38.2285 3.77441 38.4814 2.6875 38.9873 1.97656C39.4932 1.26562 40.2861 0.910156 41.3662 0.910156C42.4372 0.910156 43.2256 1.25423 43.7314 1.94238C44.2373 2.62598 44.4971 3.68327 44.5107 5.11426V6.75488ZM43.2461 5.02539C43.2461 3.95443 43.0957 3.17513 42.7949 2.6875C42.4941 2.19531 42.0179 1.94922 41.3662 1.94922C40.7191 1.94922 40.2474 2.19303 39.9512 2.68066C39.6549 3.16829 39.5023 3.91797 39.4932 4.92969V6.95312C39.4932 8.02865 39.6481 8.82389 39.958 9.33887C40.2725 9.84928 40.7464 10.1045 41.3799 10.1045C42.0042 10.1045 42.4668 9.86296 42.7676 9.37988C43.0729 8.89681 43.2324 8.13574 43.2461 7.09668V5.02539ZM56.5352 2.12695H53.3359V11H52.0303V2.12695H48.8379V1.04688H56.5352V2.12695ZM60.8691 4.73828C60.6777 4.70638 60.4704 4.69043 60.2471 4.69043C59.4176 4.69043 58.8548 5.04362 58.5586 5.75V11H57.2939V3.60352H58.5244L58.5449 4.45801C58.9596 3.7972 59.5475 3.4668 60.3086 3.4668C60.5547 3.4668 60.7415 3.4987 60.8691 3.5625V4.73828ZM63.4121 11H62.1475V3.60352H63.4121V11ZM62.0449 1.6416C62.0449 1.43652 62.1064 1.26335 62.2295 1.12207C62.3571 0.980794 62.5439 0.910156 62.79 0.910156C63.0361 0.910156 63.223 0.980794 63.3506 1.12207C63.4782 1.26335 63.542 1.43652 63.542 1.6416C63.542 1.84668 63.4782 2.01758 63.3506 2.1543C63.223 2.29102 63.0361 2.35938 62.79 2.35938C62.5439 2.35938 62.3571 2.29102 62.2295 2.1543C62.1064 2.01758 62.0449 1.84668 62.0449 1.6416ZM71.6904 7.38379C71.6904 8.50944 71.4329 9.41634 70.918 10.1045C70.403 10.7926 69.7057 11.1367 68.8262 11.1367C67.9284 11.1367 67.222 10.8519 66.707 10.2822V13.8438H65.4424V3.60352H66.5977L66.6592 4.42383C67.1742 3.78581 67.8896 3.4668 68.8057 3.4668C69.6943 3.4668 70.3962 3.80176 70.9111 4.47168C71.4307 5.1416 71.6904 6.07357 71.6904 7.26758V7.38379ZM70.4258 7.24023C70.4258 6.40625 70.248 5.74772 69.8926 5.26465C69.5371 4.78158 69.0495 4.54004 68.4297 4.54004C67.6641 4.54004 67.0898 4.87956 66.707 5.55859V9.09277C67.0853 9.76725 67.6641 10.1045 68.4434 10.1045C69.0495 10.1045 69.5303 9.86523 69.8857 9.38672C70.2458 8.90365 70.4258 8.18815 70.4258 7.24023ZM74.5684 4.49902C75.1289 3.81087 75.8581 3.4668 76.7559 3.4668C78.319 3.4668 79.1074 4.34863 79.1211 6.1123V11H77.8564V6.10547C77.8519 5.57227 77.7288 5.17806 77.4873 4.92285C77.2503 4.66764 76.8789 4.54004 76.373 4.54004C75.9629 4.54004 75.6029 4.64941 75.293 4.86816C74.9831 5.08691 74.7415 5.37402 74.5684 5.72949V11H73.3037V0.5H74.5684V4.49902ZM80.6797 7.2334C80.6797 6.50879 80.821 5.8571 81.1035 5.27832C81.3906 4.69954 81.7871 4.25293 82.293 3.93848C82.8034 3.62402 83.3844 3.4668 84.0361 3.4668C85.0433 3.4668 85.8568 3.81543 86.4766 4.5127C87.1009 5.20996 87.4131 6.13737 87.4131 7.29492V7.38379C87.4131 8.10384 87.2741 8.75098 86.9961 9.3252C86.7227 9.89486 86.3285 10.3392 85.8135 10.6582C85.3031 10.9772 84.7152 11.1367 84.0498 11.1367C83.0472 11.1367 82.2337 10.7881 81.6094 10.0908C80.9896 9.39355 80.6797 8.4707 80.6797 7.32227V7.2334ZM81.9512 7.38379C81.9512 8.2041 82.1403 8.86263 82.5186 9.35938C82.9014 9.85612 83.4118 10.1045 84.0498 10.1045C84.6924 10.1045 85.2028 9.85384 85.5811 9.35254C85.9593 8.84668 86.1484 8.1403 86.1484 7.2334C86.1484 6.4222 85.9548 5.76595 85.5674 5.26465C85.1846 4.75879 84.6742 4.50586 84.0361 4.50586C83.4118 4.50586 82.9082 4.75423 82.5254 5.25098C82.1426 5.74772 81.9512 6.45866 81.9512 7.38379ZM93.5654 10.2686C93.0732 10.8473 92.3509 11.1367 91.3984 11.1367C90.61 11.1367 90.0085 10.9089 89.5938 10.4531C89.1836 9.99284 88.9762 9.3138 88.9717 8.41602V3.60352H90.2363V8.38184C90.2363 9.50293 90.6921 10.0635 91.6035 10.0635C92.5697 10.0635 93.2122 9.70345 93.5312 8.9834V3.60352H94.7959V11H93.5928L93.5654 10.2686ZM101.03 9.03809C101.03 8.69629 100.9 8.43197 100.641 8.24512C100.385 8.05371 99.9365 7.88965 99.2939 7.75293C98.6559 7.61621 98.1478 7.45215 97.7695 7.26074C97.3958 7.06934 97.1178 6.84147 96.9355 6.57715C96.7578 6.31283 96.6689 5.99837 96.6689 5.63379C96.6689 5.02767 96.9242 4.51497 97.4346 4.0957C97.9495 3.67643 98.6058 3.4668 99.4033 3.4668C100.242 3.4668 100.921 3.68327 101.44 4.11621C101.965 4.54915 102.227 5.10286 102.227 5.77734H100.955C100.955 5.43099 100.807 5.13249 100.511 4.88184C100.219 4.63118 99.8499 4.50586 99.4033 4.50586C98.943 4.50586 98.583 4.60612 98.3232 4.80664C98.0635 5.00716 97.9336 5.26921 97.9336 5.59277C97.9336 5.89811 98.0544 6.12826 98.2959 6.2832C98.5374 6.43815 98.9727 6.58626 99.6016 6.72754C100.235 6.86882 100.748 7.03743 101.14 7.2334C101.532 7.42936 101.821 7.66634 102.008 7.94434C102.199 8.21777 102.295 8.55273 102.295 8.94922C102.295 9.61003 102.031 10.141 101.502 10.542C100.973 10.9385 100.287 11.1367 99.4443 11.1367C98.8519 11.1367 98.3278 11.0319 97.8721 10.8223C97.4163 10.6126 97.0586 10.321 96.7988 9.94727C96.5436 9.56901 96.416 9.16113 96.416 8.72363H97.6807C97.7035 9.14746 97.8721 9.4847 98.1865 9.73535C98.5055 9.98145 98.9248 10.1045 99.4443 10.1045C99.9229 10.1045 100.306 10.0088 100.593 9.81738C100.884 9.62142 101.03 9.36165 101.03 9.03809ZM107.012 11.1367C106.009 11.1367 105.193 10.8086 104.564 10.1523C103.936 9.49154 103.621 8.6097 103.621 7.50684V7.27441C103.621 6.54069 103.76 5.88672 104.038 5.3125C104.321 4.73372 104.713 4.28255 105.214 3.95898C105.72 3.63086 106.267 3.4668 106.854 3.4668C107.816 3.4668 108.563 3.78353 109.097 4.41699C109.63 5.05046 109.896 5.95736 109.896 7.1377V7.66406H104.886C104.904 8.39323 105.116 8.9834 105.521 9.43457C105.932 9.88118 106.451 10.1045 107.08 10.1045C107.527 10.1045 107.905 10.0133 108.215 9.83105C108.525 9.64876 108.796 9.40723 109.028 9.10645L109.801 9.70801C109.181 10.6605 108.251 11.1367 107.012 11.1367ZM106.854 4.50586C106.344 4.50586 105.916 4.69271 105.569 5.06641C105.223 5.43555 105.009 5.95508 104.927 6.625H108.632V6.5293C108.595 5.88672 108.422 5.38997 108.112 5.03906C107.802 4.68359 107.383 4.50586 106.854 4.50586ZM111.325 12.9824L110.607 12.4902C111.036 11.8932 111.259 11.278 111.277 10.6445V9.50293H112.515V10.4941C112.515 10.9544 112.401 11.4147 112.173 11.875C111.95 12.3353 111.667 12.7044 111.325 12.9824ZM119.193 11H117.881V1.04688H119.193V11ZM122.598 3.60352L122.639 4.5332C123.204 3.82227 123.942 3.4668 124.854 3.4668C126.417 3.4668 127.205 4.34863 127.219 6.1123V11H125.954V6.10547C125.95 5.57227 125.826 5.17806 125.585 4.92285C125.348 4.66764 124.977 4.54004 124.471 4.54004C124.061 4.54004 123.701 4.64941 123.391 4.86816C123.081 5.08691 122.839 5.37402 122.666 5.72949V11H121.401V3.60352H122.598ZM132.093 10.1045C132.544 10.1045 132.938 9.96777 133.275 9.69434C133.613 9.4209 133.799 9.0791 133.836 8.66895H135.032C135.009 9.09277 134.864 9.49609 134.595 9.87891C134.326 10.2617 133.966 10.5671 133.515 10.7949C133.068 11.0228 132.594 11.1367 132.093 11.1367C131.086 11.1367 130.284 10.8018 129.687 10.1318C129.094 9.45736 128.798 8.53678 128.798 7.37012V7.1582C128.798 6.43815 128.93 5.79785 129.194 5.2373C129.459 4.67676 129.837 4.24154 130.329 3.93164C130.826 3.62174 131.411 3.4668 132.086 3.4668C132.915 3.4668 133.604 3.71517 134.15 4.21191C134.702 4.70866 134.996 5.35352 135.032 6.14648H133.836C133.799 5.66797 133.617 5.27604 133.289 4.9707C132.965 4.66081 132.564 4.50586 132.086 4.50586C131.443 4.50586 130.944 4.73828 130.589 5.20312C130.238 5.66341 130.062 6.33105 130.062 7.20605V7.44531C130.062 8.29753 130.238 8.95378 130.589 9.41406C130.94 9.87435 131.441 10.1045 132.093 10.1045ZM136.481 10.3369C136.481 10.1182 136.545 9.93587 136.673 9.79004C136.805 9.64421 137.001 9.57129 137.261 9.57129C137.521 9.57129 137.716 9.64421 137.849 9.79004C137.985 9.93587 138.054 10.1182 138.054 10.3369C138.054 10.5465 137.985 10.722 137.849 10.8633C137.716 11.0046 137.521 11.0752 137.261 11.0752C137.001 11.0752 136.805 11.0046 136.673 10.8633C136.545 10.722 136.481 10.5465 136.481 10.3369ZM149.312 8.40234H145.143L144.206 11H142.853L146.653 1.04688H147.802L151.609 11H150.263L149.312 8.40234ZM145.539 7.32227H148.923L147.228 2.66699L145.539 7.32227ZM154.125 11H152.86V0.5H154.125V11ZM157.529 11H156.265V0.5H157.529V11ZM166.607 4.73828C166.416 4.70638 166.209 4.69043 165.985 4.69043C165.156 4.69043 164.593 5.04362 164.297 5.75V11H163.032V3.60352H164.263L164.283 4.45801C164.698 3.7972 165.286 3.4668 166.047 3.4668C166.293 3.4668 166.48 3.4987 166.607 3.5625V4.73828ZM169.15 11H167.886V3.60352H169.15V11ZM167.783 1.6416C167.783 1.43652 167.845 1.26335 167.968 1.12207C168.095 0.980794 168.282 0.910156 168.528 0.910156C168.774 0.910156 168.961 0.980794 169.089 1.12207C169.216 1.26335 169.28 1.43652 169.28 1.6416C169.28 1.84668 169.216 2.01758 169.089 2.1543C168.961 2.29102 168.774 2.35938 168.528 2.35938C168.282 2.35938 168.095 2.29102 167.968 2.1543C167.845 2.01758 167.783 1.84668 167.783 1.6416ZM170.88 7.24023C170.88 6.08724 171.146 5.17122 171.68 4.49219C172.213 3.80859 172.919 3.4668 173.799 3.4668C174.701 3.4668 175.405 3.78581 175.911 4.42383L175.973 3.60352H177.128V10.8223C177.128 11.7793 176.843 12.5335 176.273 13.085C175.708 13.6364 174.947 13.9121 173.99 13.9121C173.457 13.9121 172.935 13.7982 172.425 13.5703C171.914 13.3424 171.525 13.0303 171.256 12.6338L171.912 11.875C172.454 12.5449 173.118 12.8799 173.901 12.8799C174.517 12.8799 174.995 12.7067 175.337 12.3604C175.683 12.014 175.856 11.5264 175.856 10.8975V10.2617C175.351 10.8451 174.66 11.1367 173.785 11.1367C172.919 11.1367 172.217 10.7881 171.68 10.0908C171.146 9.39355 170.88 8.44336 170.88 7.24023ZM172.151 7.38379C172.151 8.21777 172.322 8.87402 172.664 9.35254C173.006 9.8265 173.484 10.0635 174.1 10.0635C174.897 10.0635 175.483 9.70117 175.856 8.97656V5.59961C175.469 4.89323 174.888 4.54004 174.113 4.54004C173.498 4.54004 173.017 4.7793 172.671 5.25781C172.325 5.73633 172.151 6.44499 172.151 7.38379ZM180.307 4.49902C180.867 3.81087 181.596 3.4668 182.494 3.4668C184.057 3.4668 184.846 4.34863 184.859 6.1123V11H183.595V6.10547C183.59 5.57227 183.467 5.17806 183.226 4.92285C182.989 4.66764 182.617 4.54004 182.111 4.54004C181.701 4.54004 181.341 4.64941 181.031 4.86816C180.721 5.08691 180.48 5.37402 180.307 5.72949V11H179.042V0.5H180.307V4.49902ZM188.469 1.8125V3.60352H189.85V4.58105H188.469V9.16797C188.469 9.46419 188.53 9.6875 188.653 9.83789C188.776 9.98372 188.986 10.0566 189.282 10.0566C189.428 10.0566 189.629 10.0293 189.884 9.97461V11C189.551 11.0911 189.228 11.1367 188.913 11.1367C188.348 11.1367 187.922 10.9658 187.635 10.624C187.348 10.2822 187.204 9.79688 187.204 9.16797V4.58105H185.857V3.60352H187.204V1.8125H188.469ZM195.64 9.03809C195.64 8.69629 195.51 8.43197 195.25 8.24512C194.995 8.05371 194.546 7.88965 193.903 7.75293C193.265 7.61621 192.757 7.45215 192.379 7.26074C192.005 7.06934 191.727 6.84147 191.545 6.57715C191.367 6.31283 191.278 5.99837 191.278 5.63379C191.278 5.02767 191.534 4.51497 192.044 4.0957C192.559 3.67643 193.215 3.4668 194.013 3.4668C194.851 3.4668 195.53 3.68327 196.05 4.11621C196.574 4.54915 196.836 5.10286 196.836 5.77734H195.564C195.564 5.43099 195.416 5.13249 195.12 4.88184C194.828 4.63118 194.459 4.50586 194.013 4.50586C193.552 4.50586 193.192 4.60612 192.933 4.80664C192.673 5.00716 192.543 5.26921 192.543 5.59277C192.543 5.89811 192.664 6.12826 192.905 6.2832C193.147 6.43815 193.582 6.58626 194.211 6.72754C194.844 6.86882 195.357 7.03743 195.749 7.2334C196.141 7.42936 196.43 7.66634 196.617 7.94434C196.809 8.21777 196.904 8.55273 196.904 8.94922C196.904 9.61003 196.64 10.141 196.111 10.542C195.583 10.9385 194.897 11.1367 194.054 11.1367C193.461 11.1367 192.937 11.0319 192.481 10.8223C192.026 10.6126 191.668 10.321 191.408 9.94727C191.153 9.56901 191.025 9.16113 191.025 8.72363H192.29C192.313 9.14746 192.481 9.4847 192.796 9.73535C193.115 9.98145 193.534 10.1045 194.054 10.1045C194.532 10.1045 194.915 10.0088 195.202 9.81738C195.494 9.62142 195.64 9.36165 195.64 9.03809ZM205.6 4.73828C205.408 4.70638 205.201 4.69043 204.978 4.69043C204.148 4.69043 203.585 5.04362 203.289 5.75V11H202.024V3.60352H203.255L203.275 4.45801C203.69 3.7972 204.278 3.4668 205.039 3.4668C205.285 3.4668 205.472 3.4987 205.6 3.5625V4.73828ZM209.701 11.1367C208.699 11.1367 207.883 10.8086 207.254 10.1523C206.625 9.49154 206.311 8.6097 206.311 7.50684V7.27441C206.311 6.54069 206.45 5.88672 206.728 5.3125C207.01 4.73372 207.402 4.28255 207.903 3.95898C208.409 3.63086 208.956 3.4668 209.544 3.4668C210.506 3.4668 211.253 3.78353 211.786 4.41699C212.319 5.05046 212.586 5.95736 212.586 7.1377V7.66406H207.575C207.593 8.39323 207.805 8.9834 208.211 9.43457C208.621 9.88118 209.141 10.1045 209.77 10.1045C210.216 10.1045 210.594 10.0133 210.904 9.83105C211.214 9.64876 211.485 9.40723 211.718 9.10645L212.49 9.70801C211.87 10.6605 210.941 11.1367 209.701 11.1367ZM209.544 4.50586C209.034 4.50586 208.605 4.69271 208.259 5.06641C207.912 5.43555 207.698 5.95508 207.616 6.625H211.321V6.5293C211.285 5.88672 211.112 5.38997 210.802 5.03906C210.492 4.68359 210.073 4.50586 209.544 4.50586ZM218.362 9.03809C218.362 8.69629 218.232 8.43197 217.973 8.24512C217.717 8.05371 217.269 7.88965 216.626 7.75293C215.988 7.61621 215.48 7.45215 215.102 7.26074C214.728 7.06934 214.45 6.84147 214.268 6.57715C214.09 6.31283 214.001 5.99837 214.001 5.63379C214.001 5.02767 214.256 4.51497 214.767 4.0957C215.282 3.67643 215.938 3.4668 216.735 3.4668C217.574 3.4668 218.253 3.68327 218.772 4.11621C219.297 4.54915 219.559 5.10286 219.559 5.77734H218.287C218.287 5.43099 218.139 5.13249 217.843 4.88184C217.551 4.63118 217.182 4.50586 216.735 4.50586C216.275 4.50586 215.915 4.60612 215.655 4.80664C215.396 5.00716 215.266 5.26921 215.266 5.59277C215.266 5.89811 215.386 6.12826 215.628 6.2832C215.869 6.43815 216.305 6.58626 216.934 6.72754C217.567 6.86882 218.08 7.03743 218.472 7.2334C218.864 7.42936 219.153 7.66634 219.34 7.94434C219.531 8.21777 219.627 8.55273 219.627 8.94922C219.627 9.61003 219.363 10.141 218.834 10.542C218.305 10.9385 217.619 11.1367 216.776 11.1367C216.184 11.1367 215.66 11.0319 215.204 10.8223C214.748 10.6126 214.391 10.321 214.131 9.94727C213.876 9.56901 213.748 9.16113 213.748 8.72363H215.013C215.035 9.14746 215.204 9.4847 215.519 9.73535C215.838 9.98145 216.257 10.1045 216.776 10.1045C217.255 10.1045 217.638 10.0088 217.925 9.81738C218.216 9.62142 218.362 9.36165 218.362 9.03809ZM224.344 11.1367C223.341 11.1367 222.525 10.8086 221.896 10.1523C221.268 9.49154 220.953 8.6097 220.953 7.50684V7.27441C220.953 6.54069 221.092 5.88672 221.37 5.3125C221.653 4.73372 222.045 4.28255 222.546 3.95898C223.052 3.63086 223.599 3.4668 224.187 3.4668C225.148 3.4668 225.896 3.78353 226.429 4.41699C226.962 5.05046 227.229 5.95736 227.229 7.1377V7.66406H222.218C222.236 8.39323 222.448 8.9834 222.854 9.43457C223.264 9.88118 223.783 10.1045 224.412 10.1045C224.859 10.1045 225.237 10.0133 225.547 9.83105C225.857 9.64876 226.128 9.40723 226.36 9.10645L227.133 9.70801C226.513 10.6605 225.583 11.1367 224.344 11.1367ZM224.187 4.50586C223.676 4.50586 223.248 4.69271 222.901 5.06641C222.555 5.43555 222.341 5.95508 222.259 6.625H225.964V6.5293C225.927 5.88672 225.754 5.38997 225.444 5.03906C225.134 4.68359 224.715 4.50586 224.187 4.50586ZM232.273 4.73828C232.082 4.70638 231.875 4.69043 231.651 4.69043C230.822 4.69043 230.259 5.04362 229.963 5.75V11H228.698V3.60352H229.929L229.949 4.45801C230.364 3.7972 230.952 3.4668 231.713 3.4668C231.959 3.4668 232.146 3.4987 232.273 3.5625V4.73828ZM236.006 9.28418L237.838 3.60352H239.13L236.478 11H235.514L232.834 3.60352H234.126L236.006 9.28418ZM243.32 11.1367C242.318 11.1367 241.502 10.8086 240.873 10.1523C240.244 9.49154 239.93 8.6097 239.93 7.50684V7.27441C239.93 6.54069 240.069 5.88672 240.347 5.3125C240.629 4.73372 241.021 4.28255 241.522 3.95898C242.028 3.63086 242.575 3.4668 243.163 3.4668C244.125 3.4668 244.872 3.78353 245.405 4.41699C245.938 5.05046 246.205 5.95736 246.205 7.1377V7.66406H241.194C241.213 8.39323 241.424 8.9834 241.83 9.43457C242.24 9.88118 242.76 10.1045 243.389 10.1045C243.835 10.1045 244.214 10.0133 244.523 9.83105C244.833 9.64876 245.104 9.40723 245.337 9.10645L246.109 9.70801C245.49 10.6605 244.56 11.1367 243.32 11.1367ZM243.163 4.50586C242.653 4.50586 242.224 4.69271 241.878 5.06641C241.532 5.43555 241.317 5.95508 241.235 6.625H244.94V6.5293C244.904 5.88672 244.731 5.38997 244.421 5.03906C244.111 4.68359 243.692 4.50586 243.163 4.50586ZM247.367 7.24023C247.367 6.10547 247.636 5.19401 248.174 4.50586C248.712 3.81315 249.416 3.4668 250.286 3.4668C251.152 3.4668 251.838 3.76302 252.344 4.35547V0.5H253.608V11H252.446L252.385 10.207C251.879 10.8268 251.175 11.1367 250.272 11.1367C249.416 11.1367 248.716 10.7858 248.174 10.084C247.636 9.38216 247.367 8.46615 247.367 7.33594V7.24023ZM248.632 7.38379C248.632 8.22233 248.805 8.87858 249.151 9.35254C249.498 9.8265 249.976 10.0635 250.587 10.0635C251.389 10.0635 251.975 9.70345 252.344 8.9834V5.58594C251.965 4.88867 251.384 4.54004 250.601 4.54004C249.981 4.54004 249.498 4.7793 249.151 5.25781C248.805 5.73633 248.632 6.44499 248.632 7.38379Z" fill="white"/>
</svg>
